<svg width="478" height="144" viewBox="0 0 478 144" fill="none" xmlns="http://www.w3.org/2000/svg">
<path fill-rule="evenodd" clip-rule="evenodd" d="M296.445 112.612C268.676 133.08 228.428 144 193.775 144C145.185 144 101.442 126.029 68.3493 96.1387C65.7493 93.7882 68.0789 90.585 71.199 92.4154C106.913 113.195 151.072 125.696 196.687 125.696C227.45 125.696 261.292 119.331 292.409 106.123C297.11 104.126 301.041 109.201 296.445 112.612Z" fill="white"/>
<path fill-rule="evenodd" clip-rule="evenodd" d="M307.989 99.4044C304.453 94.8699 284.526 97.2619 275.582 98.3227C272.857 98.6556 272.441 96.2843 274.896 94.5787C290.766 83.409 316.808 86.633 319.845 90.3771C322.882 94.1419 319.055 120.246 304.141 132.705C301.853 134.619 299.669 133.6 300.688 131.062C304.037 122.701 311.546 103.96 307.989 99.4044Z" fill="white"/>
<path fill-rule="evenodd" clip-rule="evenodd" d="M276.206 15.725V4.86733C276.206 3.22411 277.454 2.1217 278.952 2.1217H327.562C329.122 2.1217 330.37 3.24492 330.37 4.86733V14.165C330.349 15.725 329.038 17.7635 326.709 20.9875L301.52 56.9511C310.88 56.7223 320.76 58.1159 329.246 62.8999C331.16 63.9815 331.68 65.5624 331.826 67.1224V78.7081C331.826 80.2889 330.078 82.1401 328.248 81.1833C313.293 73.3416 293.428 72.4888 276.892 81.2665C275.207 82.1817 273.439 80.3513 273.439 78.7705V67.7672C273.439 65.9992 273.46 62.9831 275.228 60.2999L304.411 18.4499H279.014C277.454 18.4499 276.206 17.3475 276.206 15.725Z" fill="white"/>
<path fill-rule="evenodd" clip-rule="evenodd" d="M98.8842 83.4712H84.0952C82.6808 83.3673 81.5576 82.3064 81.4536 80.9544V5.05449C81.4536 3.53607 82.7224 2.32965 84.3032 2.32965H98.0938C99.529 2.39201 100.673 3.49446 100.777 4.86727V14.7889H101.047C104.646 5.20008 111.406 0.728027 120.516 0.728027C129.773 0.728027 135.555 5.20008 139.715 14.7889C143.293 5.20008 151.426 0.728027 160.141 0.728027C166.339 0.728027 173.12 3.28645 177.259 9.02731C181.939 15.4129 180.983 24.6898 180.983 32.8227L180.962 80.7256C180.962 82.244 179.693 83.4712 178.112 83.4712H163.344C161.867 83.3673 160.682 82.1816 160.682 80.7256V40.498C160.682 37.2948 160.973 29.3075 160.266 26.2707C159.163 21.1746 155.856 19.7394 151.571 19.7394C147.994 19.7394 144.249 22.1314 142.731 25.9587C141.213 29.7859 141.358 36.1923 141.358 40.498V80.7256C141.358 82.244 140.089 83.4712 138.509 83.4712H123.74C122.243 83.3673 121.078 82.1816 121.078 80.7256L121.057 40.498C121.057 32.0323 122.451 19.573 111.947 19.573C101.318 19.573 101.734 31.7203 101.734 40.498V80.7256C101.734 82.244 100.465 83.4712 98.8842 83.4712Z" fill="white"/>
<path fill-rule="evenodd" clip-rule="evenodd" d="M372.22 0.728027C394.164 0.728027 406.041 19.573 406.041 43.5348C406.041 66.6855 392.916 85.0521 372.22 85.0521C350.671 85.0521 338.939 66.2071 338.939 42.7236C338.939 19.0946 350.816 0.728027 372.22 0.728027ZM372.345 16.2242C361.445 16.2242 360.759 31.0755 360.759 40.3316C360.759 49.6085 360.613 69.4103 372.22 69.4103C383.681 69.4103 384.222 53.4357 384.222 43.7012C384.222 37.2948 383.951 29.6403 382.017 23.5666C380.353 18.2834 377.045 16.2242 372.345 16.2242Z" fill="white"/>
<path fill-rule="evenodd" clip-rule="evenodd" d="M434.496 83.4712H419.769C418.292 83.3673 417.107 82.1816 417.107 80.7256L417.086 4.80487C417.211 3.41126 418.438 2.32965 419.936 2.32965H433.643C434.933 2.39201 435.993 3.26566 436.285 4.45127V16.0577H436.555C440.694 5.67848 446.497 0.728027 456.71 0.728027C463.346 0.728027 469.815 3.12006 473.975 9.67212C477.843 15.7457 477.843 25.9587 477.843 33.3011V81.0792C477.677 82.4104 476.45 83.4712 474.994 83.4712H460.163C458.811 83.3673 457.688 82.3688 457.542 81.0792V39.8532C457.542 31.5539 458.499 19.4066 448.286 19.4066C444.688 19.4066 441.381 21.8194 439.737 25.4802C437.657 30.1187 437.387 34.7363 437.387 39.8532V80.7256C437.366 82.244 436.077 83.4712 434.496 83.4712Z" fill="white"/>
<path fill-rule="evenodd" clip-rule="evenodd" d="M237.455 47.2166C237.455 52.9783 237.601 57.7831 234.689 62.9C232.339 67.06 228.594 69.6184 224.455 69.6184C218.777 69.6184 215.449 65.292 215.449 58.9063C215.449 46.3014 226.743 44.0134 237.455 44.0134V47.2166ZM252.369 83.2634C251.392 84.137 249.977 84.1994 248.875 83.617C243.966 79.5402 243.071 77.6473 240.388 73.7577C232.276 82.0362 226.514 84.5114 216.01 84.5114C203.551 84.5114 193.879 76.8361 193.879 61.4648C193.879 49.463 200.369 41.2886 209.645 37.2949C217.674 33.7589 228.886 33.1349 237.455 32.1573V30.2436C237.455 26.7284 237.726 22.5684 235.646 19.5315C233.857 16.8067 230.404 15.6835 227.346 15.6835C221.71 15.6835 216.697 18.5747 215.47 24.5652C215.22 25.8964 214.242 27.2068 212.89 27.2692L198.559 25.73C197.353 25.4596 196.001 24.482 196.354 22.6308C199.641 5.24179 215.366 0.00012207 229.426 0.00012207C236.623 0.00012207 246.025 1.91375 251.704 7.3634C258.9 14.0819 258.214 23.0468 258.214 32.8021V55.8487C258.214 62.7752 261.084 65.812 263.788 69.5561C264.724 70.8873 264.932 72.4889 263.726 73.4873C260.71 76.0041 255.343 80.6842 252.39 83.305L252.369 83.2633" fill="white"/>
<path fill-rule="evenodd" clip-rule="evenodd" d="M43.5765 47.2167C43.5765 52.9784 43.722 57.7832 40.81 62.9001C38.4596 67.0602 34.7364 69.6186 30.5763 69.6186C24.8978 69.6186 21.5906 65.2921 21.5906 58.9065C21.5906 46.3015 32.8851 44.0135 43.5765 44.0135V47.2167ZM58.4902 83.2635C57.5126 84.1371 56.0982 84.1995 54.9958 83.6171C50.0869 79.5403 49.2133 77.6475 46.5093 73.7578C38.3972 82.0363 32.6563 84.5115 22.1314 84.5115C9.69288 84.5115 0 76.8362 0 61.4649C0 49.4632 6.51046 41.2887 15.7666 37.295C23.7954 33.759 35.0068 33.135 43.5765 32.1574V30.2438C43.5765 26.7285 43.8469 22.5685 41.7876 19.5317C39.978 16.8068 36.5252 15.6836 33.4883 15.6836C27.8515 15.6836 22.8178 18.5748 21.5906 24.5653C21.341 25.8965 20.3634 27.2069 19.0322 27.2693L4.68005 25.7301C3.47363 25.4597 2.14242 24.4821 2.47522 22.6309C5.78246 5.24191 21.4866 0.000244141 35.5476 0.000244141C42.7444 0.000244141 52.1461 1.91387 57.8246 7.36352C65.0215 14.082 64.335 23.0469 64.335 32.8022V55.8488C64.335 62.7753 67.2055 65.8121 69.9095 69.5562C70.8663 70.8874 71.0743 72.489 69.8679 73.4874C66.8519 76.0042 61.4854 80.6843 58.5318 83.3051L58.4902 83.2634" fill="white"/>
</svg>
