<svg width="1162" height="145" viewBox="0 0 1162 145" fill="none" xmlns="http://www.w3.org/2000/svg">
<path d="M43.211 66.6807C42.7882 66.1274 42.2298 65.6925 41.5897 65.4181C40.9497 65.1437 40.2497 65.0391 39.5575 65.1143C38.8652 65.1895 38.204 65.442 37.6379 65.8475C37.0717 66.2529 36.6197 66.7976 36.3256 67.4287L1.43626 137.186C1.11842 137.821 0.968357 138.528 1.00031 139.238C1.03226 139.948 1.24518 140.638 1.61883 141.242C1.99249 141.847 2.51448 142.346 3.13526 142.692C3.75604 143.038 4.45499 143.22 5.16576 143.22H53.7474C54.5255 143.238 55.2921 143.03 55.9541 142.621C56.6161 142.212 57.1451 141.619 57.4769 140.915C67.9565 119.26 61.6055 86.3336 43.211 66.6807Z" fill="white"/>
<path d="M68.8003 3.23341C60.1069 16.6098 55.0407 32.0167 54.099 47.9421C53.1572 63.8674 56.3722 79.764 63.4285 94.0718L86.8502 140.915C87.1965 141.608 87.7288 142.19 88.3875 142.597C89.0462 143.005 89.8053 143.22 90.5797 143.22H139.153C139.863 143.22 140.562 143.039 141.183 142.692C141.804 142.346 142.326 141.847 142.7 141.242C143.073 140.638 143.286 139.948 143.318 139.238C143.35 138.528 143.2 137.821 142.882 137.186C142.882 137.186 77.5352 6.47655 75.8929 3.20724C75.5682 2.54177 75.0625 1.9813 74.4338 1.59012C73.8051 1.19894 73.0789 0.9929 72.3384 0.995632C71.5979 0.998365 70.8733 1.20976 70.2475 1.60557C69.6217 2.00137 69.1201 2.56556 68.8003 3.23341Z" fill="white"/>
<path d="M638.535 59.165C638.535 76.4385 646.548 90.1526 677.891 96.207C696.591 100.133 700.508 103.151 700.508 109.384C700.508 115.439 696.582 119.358 683.411 119.358C667.493 119.072 651.892 114.851 638.001 107.07V135.205C647.44 139.835 659.905 145 683.056 145C715.823 145 728.824 130.387 728.824 108.671L638.535 59.165ZM728.824 108.671C728.824 88.1918 717.961 78.5737 687.331 71.9871C670.413 68.2467 666.317 64.5085 666.317 59.165C666.317 52.4039 672.371 49.549 683.59 49.549C697.125 49.549 710.482 53.6449 723.125 59.3439V32.4522C711.002 26.9342 697.798 24.1965 684.48 24.4393C654.206 24.4393 638.535 37.6168 638.535 59.165" fill="white"/>
<path d="M1059.51 26.2189V143.22H1084.44V54.0004L1094.94 77.6838L1130.2 143.22H1161.55V26.2189H1136.62V101.727L1127.18 79.8211L1098.86 26.2189H1059.51Z" fill="white"/>
<path d="M900.934 26.2189H873.687V143.22H900.934V26.2189Z" fill="white"/>
<path d="M842.249 108.671C842.249 88.1918 831.385 78.5737 800.755 71.9871C783.837 68.2467 779.742 64.5085 779.742 59.165C779.742 52.4039 785.796 49.549 797.015 49.549C810.55 49.549 823.907 53.6449 836.55 59.3439V32.4522C824.426 26.9342 811.223 24.1965 797.905 24.4393C767.63 24.4393 751.96 37.6168 751.96 59.165C751.96 76.4385 759.973 90.1526 791.316 96.207C810.016 100.133 813.933 103.151 813.933 109.384C813.933 115.439 810.007 119.358 796.836 119.358C780.917 119.072 765.317 114.851 751.426 107.07V135.205C760.865 139.835 773.329 145 796.481 145C829.248 145 842.249 130.387 842.249 108.671Z" fill="white"/>
<path d="M426.871 26.2189V143.22H482.875L491.692 117.932H454.295V26.2189H426.871Z" fill="white"/>
<path d="M316.225 26.2189V51.5053H346.499V143.22H373.923V51.5053H406.334V26.2189H316.225Z" fill="white"/>
<path d="M276.459 26.2189H240.519L199.719 143.22H230.876L236.66 123.515C250.905 127.698 266.053 127.698 280.298 123.515L286.082 143.22H317.246L276.459 26.2189ZM258.488 102.416C253.412 102.416 248.363 101.689 243.493 100.259L258.488 49.2L273.482 100.277C268.612 101.701 263.562 102.422 258.488 102.416Z" fill="white"/>
<path d="M579.422 26.2189H543.483L502.684 143.22H533.848L539.632 123.515C553.877 127.698 569.024 127.698 583.269 123.515L589.053 143.22H620.217L579.422 26.2189ZM561.453 102.416C556.377 102.416 551.328 101.689 546.458 100.259L561.453 49.2L576.447 100.277C571.576 101.701 566.527 102.422 561.453 102.416Z" fill="white"/>
<path d="M999.118 26.2189H963.18L922.38 143.22H953.544L959.328 123.515C973.573 127.698 988.72 127.698 1002.97 123.515L1008.75 143.22H1039.92L999.118 26.2189ZM981.138 102.416C976.063 102.416 971.013 101.689 966.144 100.259L981.138 49.2L996.132 100.277C991.262 101.701 986.212 102.422 981.138 102.416Z" fill="white"/>
</svg>
