<svg id="visual" viewBox="0 0 900 600" width="900" height="600" xmlns="http://www.w3.org/2000/svg" xmlns:xlink="http://www.w3.org/1999/xlink" version="1.1"><rect x="0" y="0" width="900" height="600" fill="#001220"></rect><defs><linearGradient id="grad1_0" x1="33.3%" y1="0%" x2="100%" y2="100%"><stop offset="20%" stop-color="#001220" stop-opacity="1"></stop><stop offset="80%" stop-color="#001220" stop-opacity="1"></stop></linearGradient></defs><defs><linearGradient id="grad2_0" x1="0%" y1="0%" x2="66.7%" y2="100%"><stop offset="20%" stop-color="#001220" stop-opacity="1"></stop><stop offset="80%" stop-color="#001220" stop-opacity="1"></stop></linearGradient></defs><g transform="translate(900, 0)"><path d="M0 486.7C-64.3 471.4 -128.7 456 -174.9 422.2C-221.1 388.5 -249.3 336.4 -297.7 297.7C-346.1 259 -414.8 233.7 -449.7 186.3C-484.6 138.9 -485.7 69.4 -486.7 0L0 0Z" fill="#000000"></path></g><g transform="translate(0, 600)"><path d="M0 -486.7C67.7 -484.7 135.3 -482.6 186.3 -449.7C237.2 -416.8 271.5 -353 300.5 -300.5C329.5 -248.1 353.3 -207 383.4 -158.8C413.6 -110.6 450.2 -55.3 486.7 0L0 0Z" fill="#000000"></path></g></svg>