<svg width="463" height="144" viewBox="0 0 463 144" fill="none" xmlns="http://www.w3.org/2000/svg">
<path d="M244.171 36.1802C244.171 41.3694 239.991 45.5495 234.802 45.5495C229.612 45.5495 225.432 41.3694 225.432 36.1802C225.432 30.991 229.468 26.8108 234.802 26.8108C240.135 26.955 244.171 31.1351 244.171 36.1802ZM205.54 55.0631C205.54 55.9279 205.54 57.3694 205.54 57.3694C205.54 57.3694 201.072 51.6036 191.558 51.6036C175.847 51.6036 163.594 63.5676 163.594 80.1441C163.594 96.5766 175.702 108.685 191.558 108.685C201.216 108.685 205.54 102.775 205.54 102.775V105.225C205.54 106.378 206.405 107.243 207.558 107.243H219.234V53.045C219.234 53.045 208.567 53.045 207.558 53.045C206.405 53.045 205.54 54.0541 205.54 55.0631ZM205.54 89.8018C203.378 92.973 199.054 95.7117 193.865 95.7117C184.639 95.7117 177.576 89.9459 177.576 80.1441C177.576 70.3423 184.639 64.5766 193.865 64.5766C198.91 64.5766 203.522 67.4595 205.54 70.4865V89.8018ZM227.883 53.045H241.721V107.243H227.883V53.045ZM434.585 51.6036C425.072 51.6036 420.603 57.3694 420.603 57.3694V26.955H406.766V107.243C406.766 107.243 417.432 107.243 418.441 107.243C419.594 107.243 420.459 106.234 420.459 105.225V102.775C420.459 102.775 424.928 108.685 434.441 108.685C450.153 108.685 462.405 96.5766 462.405 80.1441C462.405 63.7117 450.153 51.6036 434.585 51.6036ZM432.279 95.5676C426.946 95.5676 422.766 92.8288 420.603 89.6577V70.3423C422.766 67.4595 427.378 64.4324 432.279 64.4324C441.504 64.4324 448.567 70.1982 448.567 80C448.567 89.8018 441.504 95.5676 432.279 95.5676ZM399.558 75.0991V107.387H385.721V76.6847C385.721 67.7477 382.838 64.1441 375.054 64.1441C370.874 64.1441 366.549 66.3063 363.811 69.4775V107.243H349.973V53.045H360.928C362.081 53.045 362.946 54.0541 362.946 55.0631V57.3694C366.982 53.1892 372.315 51.6036 377.648 51.6036C383.702 51.6036 388.748 53.3333 392.784 56.7928C397.684 60.8288 399.558 66.018 399.558 75.0991ZM316.387 51.6036C306.874 51.6036 302.405 57.3694 302.405 57.3694V26.955H288.567V107.243C288.567 107.243 299.234 107.243 300.243 107.243C301.396 107.243 302.261 106.234 302.261 105.225V102.775C302.261 102.775 306.73 108.685 316.243 108.685C331.955 108.685 344.207 96.5766 344.207 80.1441C344.351 63.7117 332.099 51.6036 316.387 51.6036ZM314.081 95.5676C308.748 95.5676 304.567 92.8288 302.405 89.6577V70.3423C304.567 67.4595 309.18 64.4324 314.081 64.4324C323.306 64.4324 330.369 70.1982 330.369 80C330.369 89.8018 323.306 95.5676 314.081 95.5676ZM276.603 51.6036C280.784 51.6036 282.946 52.3243 282.946 52.3243V65.1532C282.946 65.1532 271.414 61.2613 264.207 69.4775V107.387H250.369V53.045C250.369 53.045 261.036 53.045 262.045 53.045C263.198 53.045 264.063 54.0541 264.063 55.0631V57.3694C266.657 54.3423 272.279 51.6036 276.603 51.6036ZM132.892 102.342C132.171 100.613 131.45 98.7387 130.73 97.1532C129.576 94.5586 128.423 92.1081 127.414 89.8018L127.27 89.6577C117.324 68.036 106.657 46.1261 95.4142 24.5045L94.9818 23.6396C93.8286 21.4775 92.6755 19.1712 91.5223 16.8649C90.0809 14.2703 88.6394 11.5315 86.3331 8.93694C81.7205 3.17117 75.0899 0 68.0268 0C60.8196 0 54.3331 3.17117 49.5764 8.64865C47.4142 11.2432 45.8286 13.982 44.3872 16.5766C43.234 18.8829 42.0809 21.1892 40.9277 23.3514L40.4953 24.2162C29.3962 45.8378 18.5854 67.7477 8.63944 89.3694L8.4953 89.6577C7.48629 91.964 6.33314 94.4144 5.17999 97.009C4.45926 98.5946 3.73854 100.324 3.01782 102.198C1.14395 107.532 0.567373 112.577 1.28809 117.766C2.87368 128.577 10.0809 137.658 20.0268 141.694C23.7746 143.279 27.6665 144 31.7025 144C32.8557 144 34.2971 143.856 35.4503 143.712C40.207 143.135 45.1079 141.55 49.8647 138.811C55.7746 135.495 61.3962 130.739 67.7385 123.82C74.0809 130.739 79.8467 135.495 85.6124 138.811C90.3692 141.55 95.2701 143.135 100.027 143.712C101.18 143.856 102.621 144 103.775 144C107.811 144 111.847 143.279 115.45 141.694C125.54 137.658 132.603 128.432 134.189 117.766C135.342 112.721 134.766 107.676 132.892 102.342ZM67.8827 109.838C60.0989 100.036 55.0539 90.8108 53.3241 83.027C52.6034 79.7117 52.4593 76.8288 52.8917 74.2342C53.18 71.9279 54.0448 69.9099 55.198 68.1802C57.9367 64.2883 62.5494 61.8378 67.8827 61.8378C73.216 61.8378 77.9728 64.1441 80.5674 68.1802C81.7205 69.9099 82.5854 71.9279 82.8737 74.2342C83.3061 76.8288 83.162 79.8559 82.4412 83.027C80.7115 90.6667 75.6665 99.8919 67.8827 109.838ZM125.396 116.613C124.387 124.108 119.342 130.595 112.279 133.477C108.82 134.919 105.072 135.351 101.324 134.919C97.7205 134.486 94.1169 133.333 90.3692 131.171C85.18 128.288 79.9908 123.82 73.9367 117.189C83.4503 105.514 89.216 94.8468 91.3782 85.3333C92.3872 80.8649 92.5313 76.8288 92.0989 73.0811C91.5223 69.4775 90.225 66.1622 88.207 63.2793C83.7385 56.7928 76.243 53.045 67.8827 53.045C59.5223 53.045 52.0268 56.9369 47.5584 63.2793C45.5403 66.1622 44.243 69.4775 43.6665 73.0811C43.0899 76.8288 43.234 81.009 44.3872 85.3333C46.5494 94.8468 52.4593 105.658 61.8286 117.333C55.9187 123.964 50.5854 128.432 45.3962 131.315C41.6484 133.477 38.0448 134.631 34.4412 135.063C30.5494 135.495 26.8016 134.919 23.4863 133.622C16.4232 130.739 11.3782 124.252 10.3692 116.757C9.93674 113.153 10.225 109.55 11.6665 105.514C12.0989 104.072 12.8196 102.631 13.5403 100.901C14.5494 98.5946 15.7025 96.1441 16.8557 93.6937L16.9998 93.4054C26.9458 71.9279 37.6124 50.018 48.7115 28.6847L49.144 27.8198C50.2971 25.6577 51.4503 23.3514 52.6034 21.1892C53.7566 18.8829 55.0539 16.7207 56.6394 14.8468C59.6665 11.3874 63.7025 9.51351 68.171 9.51351C72.6394 9.51351 76.6755 11.3874 79.7025 14.8468C81.2881 16.7207 82.5854 18.8829 83.7385 21.1892C84.8917 23.3514 86.0449 25.6577 87.198 27.8198L87.6304 28.6847C98.5854 50.1622 109.252 72.0721 119.198 93.5496V93.6937C120.351 96 121.36 98.5946 122.513 100.901C123.234 102.631 123.955 104.072 124.387 105.514C125.54 109.261 125.973 112.865 125.396 116.613Z" fill="white"/>
</svg>
