<svg width="532" height="144" viewBox="0 0 532 144" fill="none" xmlns="http://www.w3.org/2000/svg">
<path d="M220.339 119.267H220.101C220.208 119.267 220.279 119.386 220.387 119.398H220.458L220.339 119.279V119.267ZM220.387 119.398C219.281 119.41 216.498 119.992 213.561 119.992C204.286 119.992 201.076 115.711 201.076 110.123V72.8922H219.982C221.052 72.8922 221.885 71.941 221.885 70.633V50.4184C221.885 49.3482 220.933 48.3969 219.982 48.3969H201.076V23.3071C201.076 22.3558 200.481 21.7612 199.411 21.7612H173.726C172.656 21.7612 172.062 22.3558 172.062 23.3071V49.1104C172.062 49.1104 159.101 52.3209 158.268 52.4398C157.317 52.6777 156.722 53.51 156.722 54.4613V70.633C156.722 71.941 157.674 72.8922 158.744 72.8922H171.943V111.894C171.943 140.908 192.157 143.881 205.951 143.881C212.253 143.881 219.863 141.86 221.052 141.265C221.766 141.027 222.123 140.195 222.123 139.363V121.526C222.139 121.02 221.972 120.525 221.654 120.132C221.335 119.739 220.885 119.474 220.387 119.386V119.398ZM502.154 93.2257C502.154 71.7031 493.474 68.8493 484.318 69.8006C477.183 70.2762 471.475 73.8435 471.475 73.8435V115.7C471.475 115.7 477.302 119.743 485.982 119.98C498.23 120.337 502.154 115.937 502.154 93.2257ZM531.049 91.3232C531.049 132.109 517.85 143.762 494.782 143.762C475.28 143.762 464.816 133.893 464.816 133.893C464.816 133.893 464.341 139.363 463.746 140.076C463.39 140.789 462.795 141.027 462.082 141.027H444.483C443.294 141.027 442.224 140.076 442.224 139.006L442.461 6.89757C442.461 5.82739 443.413 4.87611 444.483 4.87611H469.811C470.881 4.87611 471.832 5.82739 471.832 6.89757V51.7264C471.832 51.7264 481.583 45.4242 495.852 45.4242L495.733 45.1864C510.002 45.1864 531.049 50.5373 531.049 91.3232ZM427.36 48.3969H402.389C401.081 48.3969 400.368 49.3482 400.368 50.6562V115.343C400.368 115.343 393.828 119.98 384.909 119.98C375.991 119.98 373.375 115.937 373.375 107.019V50.5373C373.375 49.4671 372.424 48.5158 371.354 48.5158H345.907C344.837 48.5158 343.886 49.4671 343.886 50.5373V111.3C343.886 137.46 358.512 144 378.607 144C395.136 144 408.572 134.844 408.572 134.844C408.572 134.844 409.167 139.481 409.524 140.195C409.761 140.789 410.594 141.265 411.426 141.265H427.36C428.668 141.265 429.382 140.314 429.382 139.244L429.619 50.4184C429.619 49.3482 428.668 48.3969 427.36 48.3969ZM145.545 48.278H120.217C119.147 48.278 118.196 49.3482 118.196 50.6562V137.936C118.196 140.314 119.742 141.146 121.763 141.146H144.594C146.972 141.146 147.566 140.076 147.566 137.936V50.2995C147.566 49.2293 146.615 48.278 145.545 48.278ZM133.06 8.08666C123.903 8.08666 116.65 15.3401 116.65 24.4961C116.65 33.6522 123.903 40.9056 133.06 40.9056C141.978 40.9056 149.231 33.6522 149.231 24.4961C149.231 15.3401 141.978 8.08666 133.06 8.08666ZM329.141 5.11393H304.051C302.981 5.11393 302.03 6.0652 302.03 7.13539V55.7693H262.671V7.13539C262.671 6.0652 261.719 5.11393 260.649 5.11393H235.322C234.251 5.11393 233.3 6.0652 233.3 7.13539V139.244C233.3 140.314 234.37 141.265 235.322 141.265H260.649C261.719 141.265 262.671 140.314 262.671 139.244V82.7617H302.03L301.792 139.244C301.792 140.314 302.743 141.265 303.813 141.265H329.141C330.211 141.265 331.162 140.314 331.162 139.244V7.13539C331.162 6.0652 330.211 5.11393 329.141 5.11393ZM104.759 63.6173V131.871C104.759 132.347 104.64 133.179 104.046 133.417C104.046 133.417 89.182 144 64.6867 144C35.0782 144 0 134.725 0 73.6057C0 12.4863 30.6786 -0.118079 60.6437 0.000829854C86.566 0.000829854 97.03 5.82739 98.6947 6.89757C99.1704 7.49212 99.4082 7.96775 99.4082 8.5623L94.414 29.7282C94.414 30.7983 93.3438 32.1063 92.0358 31.7496C87.7551 30.4416 81.334 27.8256 66.2325 27.8256C48.7528 27.8256 29.9651 32.8198 29.9651 72.1788C29.9651 111.538 47.8015 116.175 60.6437 116.175C71.5834 116.175 75.5074 114.867 75.5074 114.867V87.5181H58.0277C56.7197 87.5181 55.7685 86.5668 55.7685 85.4966V63.6173C55.7685 62.5471 56.7197 61.5958 58.0277 61.5958H102.5C103.808 61.5958 104.759 62.5471 104.759 63.6173Z" fill="white"/>
</svg>
