<svg width="426" height="144" viewBox="0 0 426 144" fill="none" xmlns="http://www.w3.org/2000/svg">
<path d="M181.174 73.8469C181.174 93.8347 165.537 108.563 146.348 108.563C127.158 108.563 111.521 93.8347 111.521 73.8469C111.521 53.7182 127.158 39.1304 146.348 39.1304C165.537 39.1304 181.174 53.7182 181.174 73.8469ZM165.928 73.8469C165.928 61.3565 156.866 52.8104 146.348 52.8104C135.829 52.8104 126.767 61.3565 126.767 73.8469C126.767 86.2121 135.829 94.8834 146.348 94.8834C156.866 94.8834 165.928 86.1965 165.928 73.8469Z" fill="white"/>
<path d="M256.305 73.8469C256.305 93.8347 240.668 108.563 221.478 108.563C202.289 108.563 186.652 93.8347 186.652 73.8469C186.652 53.7338 202.289 39.1304 221.478 39.1304C240.668 39.1304 256.305 53.7182 256.305 73.8469ZM241.059 73.8469C241.059 61.3565 231.997 52.8104 221.478 52.8104C210.96 52.8104 201.898 61.3565 201.898 73.8469C201.898 86.2121 210.96 94.8834 221.478 94.8834C231.997 94.8834 241.059 86.1965 241.059 73.8469Z" fill="white"/>
<path d="M328.304 41.2278V103.555C328.304 129.193 313.184 139.664 295.309 139.664C278.483 139.664 268.356 128.41 264.537 119.207L277.81 113.682C280.174 119.332 285.965 126 295.294 126C306.735 126 313.826 118.941 313.826 105.652V100.659H313.294C309.881 104.869 303.308 108.548 295.012 108.548C277.654 108.548 261.751 93.4278 261.751 73.9721C261.751 54.3756 277.654 39.1304 295.012 39.1304C303.292 39.1304 309.866 42.8086 313.294 46.8938H313.826V41.2434H328.304V41.2278ZM314.906 73.9721C314.906 61.7478 306.751 52.8104 296.374 52.8104C285.855 52.8104 277.043 61.7478 277.043 73.9721C277.043 86.0712 285.855 94.8834 296.374 94.8834C306.751 94.8834 314.906 86.0712 314.906 73.9721Z" fill="white"/>
<path d="M352.174 4.6958V106.435H337.305V4.6958H352.174Z" fill="white"/>
<path d="M410.118 85.273L421.951 93.1617C418.132 98.8121 408.928 108.548 393.026 108.548C373.304 108.548 358.575 93.3026 358.575 73.8313C358.575 53.186 373.429 39.1147 391.32 39.1147C409.335 39.1147 418.147 53.4521 421.027 61.2L422.608 65.1443L376.2 84.3652C379.753 91.3304 385.278 94.8834 393.026 94.8834C400.789 94.8834 406.173 91.0643 410.118 85.273ZM373.695 72.7826L404.718 59.9008C403.012 55.5652 397.878 52.5443 391.836 52.5443C384.088 52.5443 373.304 59.3843 373.695 72.7826Z" fill="white"/>
<path d="M55.2365 64.8158V50.0871H104.87C105.355 52.6541 105.605 55.6906 105.605 58.9776C105.605 70.028 102.584 83.6924 92.8487 93.428C83.3791 103.289 71.28 108.548 55.2522 108.548C25.5443 108.548 0.563477 84.3497 0.563477 54.6419C0.563477 24.9341 25.5443 0.73584 55.2522 0.73584C71.687 0.73584 83.3948 7.18454 92.1913 15.5898L81.7983 25.9828C75.4904 20.0663 66.9443 15.4645 55.2365 15.4645C33.5426 15.4645 16.5757 32.948 16.5757 54.6419C16.5757 76.3358 33.5426 93.8193 55.2365 93.8193C69.3078 93.8193 77.3217 88.1689 82.4557 83.035C86.6191 78.8715 89.3583 72.9237 90.4383 64.8002L55.2365 64.8158Z" fill="white"/>
</svg>
