<svg width="675" height="144" viewBox="0 0 675 144" fill="none" xmlns="http://www.w3.org/2000/svg">
<path d="M237.991 82.9398L233.972 94.3259H233.637C232.967 91.7584 231.74 87.8514 229.73 83.1631L208.186 29.0235H187.088V115.312H201.042V62.0654C201.042 58.7166 201.042 54.9212 200.93 50.2328C200.819 47.8887 200.595 46.1026 200.484 44.7631H200.819C201.488 48.1119 202.27 50.5677 202.828 52.1305L228.726 115.089H238.549L264.223 51.5724C264.781 50.1212 265.34 47.2189 265.898 44.7631H266.233C265.898 51.1259 265.674 56.8189 265.563 60.2794V114.977H280.409V28.8003H260.093L237.991 82.9398ZM294.474 53.1352H308.986V114.977H294.474V53.1352ZM301.842 27.0142C299.386 27.0142 297.377 27.9073 295.702 29.4701C294.028 31.0328 293.135 33.0421 293.135 35.498C293.135 37.8421 294.028 39.8514 295.702 41.4142C297.377 42.977 299.386 43.7584 301.842 43.7584C304.298 43.7584 306.419 42.8654 307.981 41.4142C309.656 39.8514 310.549 37.8421 310.549 35.498C310.549 33.1538 309.656 31.1445 307.981 29.4701C306.53 27.9073 304.409 27.0142 301.842 27.0142ZM360.447 52.577C357.767 52.0189 354.977 51.684 352.298 51.684C345.712 51.684 339.684 53.1352 334.66 56.0375C329.637 58.9398 325.619 62.9584 323.051 67.9817C320.372 73.1166 319.033 79.0328 319.033 85.8422C319.033 91.7584 320.372 97.0049 322.94 101.805C325.507 106.493 329.079 110.289 333.879 112.856C338.456 115.424 343.814 116.763 349.842 116.763C356.763 116.763 362.679 115.312 367.367 112.633L367.479 112.521V99.1259L366.921 99.5724C364.8 101.135 362.344 102.475 359.888 103.256C357.321 104.149 354.977 104.596 352.967 104.596C347.163 104.596 342.586 102.921 339.349 99.2375C336 95.6654 334.326 90.7538 334.326 84.6142C334.326 78.2515 336 73.2282 339.46 69.5445C342.921 65.8607 347.498 63.9631 353.079 63.9631C357.767 63.9631 362.567 65.5259 366.921 68.6515L367.479 69.098V54.9212L367.367 54.8096C365.47 54.0282 363.349 53.1352 360.447 52.577ZM408.335 52.1305C404.763 52.1305 401.414 53.2468 398.512 55.591C396.056 57.6003 394.381 60.5026 392.93 63.9631H392.819V53.1352H378.307V114.977H392.819V83.3863C392.819 78.0282 393.935 73.5631 396.391 70.3259C398.847 66.977 401.972 65.3026 405.767 65.3026C407.107 65.3026 408.447 65.6375 410.121 65.8608C411.684 66.3073 412.8 66.7538 413.581 67.3119L414.14 67.7584V53.2468L413.805 53.1352C412.8 52.4654 410.791 52.1305 408.335 52.1305ZM447.851 51.7956C437.693 51.7956 429.544 54.8096 423.851 60.7259C418.047 66.6422 415.256 74.791 415.256 85.0607C415.256 94.6608 418.158 102.475 423.74 108.168C429.321 113.749 436.912 116.651 446.4 116.651C456.335 116.651 464.26 113.637 469.953 107.61C475.758 101.582 478.549 93.5445 478.549 83.6096C478.549 73.7863 475.87 65.9724 470.4 60.2794C465.154 54.5863 457.451 51.7956 447.851 51.7956ZM459.46 99.3491C456.781 102.81 452.54 104.484 447.293 104.484C442.047 104.484 437.805 102.81 434.791 99.1259C431.777 95.6654 430.326 90.6422 430.326 84.2794C430.326 77.6933 431.888 72.6701 434.791 69.098C437.805 65.5259 441.935 63.7398 447.181 63.7398C452.316 63.7398 456.335 65.4142 459.237 68.8747C462.14 72.3352 463.702 77.3584 463.702 83.9445C463.479 90.6421 462.251 95.8887 459.46 99.3491ZM510.921 78.8096C506.344 76.9119 503.442 75.4608 502.102 74.2328C500.986 73.1166 500.428 71.5538 500.428 69.5445C500.428 67.8701 501.098 66.1956 502.772 65.0794C504.447 63.9631 506.344 63.4049 509.135 63.4049C511.591 63.4049 514.158 63.8514 516.614 64.5212C519.07 65.191 521.302 66.1956 523.088 67.5352L523.647 67.9817V54.3631L523.312 54.2514C521.637 53.5817 519.405 52.9119 516.726 52.3538C514.047 51.9073 511.591 51.684 509.581 51.684C502.66 51.684 496.967 53.3584 492.502 57.0421C488.037 60.5026 485.916 65.191 485.916 70.6608C485.916 73.5631 486.363 76.1305 487.367 78.2514C488.372 80.3724 489.823 82.3817 491.833 84.0561C493.842 85.6189 496.744 87.4049 500.763 89.0794C504.112 90.5305 506.679 91.6468 508.242 92.5398C509.805 93.4328 510.809 94.4375 511.591 95.2189C512.149 96.1119 512.484 97.2282 512.484 98.6794C512.484 102.81 509.358 104.819 502.995 104.819C500.54 104.819 497.972 104.372 494.958 103.368C491.944 102.363 489.154 100.912 486.809 99.2375L486.251 98.791V112.968L486.586 113.079C488.707 114.084 491.274 114.754 494.4 115.535C497.526 116.093 500.316 116.54 502.772 116.54C510.251 116.54 516.391 114.865 520.744 111.182C525.209 107.61 527.553 103.033 527.553 97.1166C527.553 92.9863 526.437 89.3026 523.981 86.5119C520.744 83.8328 516.726 81.0421 510.921 78.8096ZM565.842 51.7956C555.684 51.7956 547.535 54.8096 541.842 60.7259C536.149 66.6422 533.247 74.791 533.247 85.0607C533.247 94.6608 536.149 102.475 541.73 108.168C547.312 113.749 554.902 116.651 564.391 116.651C574.326 116.651 582.251 113.637 587.944 107.61C593.749 101.582 596.54 93.5445 596.54 83.6096C596.54 73.7863 593.86 65.9724 588.391 60.2794C583.144 54.5863 575.442 51.7956 565.842 51.7956ZM577.34 99.3491C574.66 102.81 570.419 104.484 565.172 104.484C559.814 104.484 555.684 102.81 552.67 99.1259C549.656 95.6654 548.205 90.6422 548.205 84.2794C548.205 77.6933 549.767 72.6701 552.67 69.098C555.684 65.5259 559.814 63.7398 565.06 63.7398C570.084 63.7398 574.214 65.4142 577.116 68.8747C580.019 72.3352 581.581 77.3584 581.581 83.9445C581.581 90.6421 580.13 95.8887 577.34 99.3491ZM674.121 65.0794V53.1352H659.498V34.8282L659.051 34.9398L645.209 39.0701L644.874 39.1817V53.1352H622.995V45.3212C622.995 41.7491 623.888 38.9584 625.451 37.1724C627.014 35.3863 629.358 34.4933 632.261 34.4933C634.27 34.4933 636.391 34.9398 638.735 35.9445L639.293 36.2794V23.6654L638.958 23.5538C636.949 22.884 634.27 22.4375 630.809 22.4375C626.456 22.4375 622.66 23.4422 619.2 25.1166C615.74 27.0142 613.172 29.5817 611.274 33.0422C609.377 36.391 608.372 40.1863 608.372 44.5398V53.1352H598.214V64.9677H608.372V114.977H622.995V65.0794H644.874V96.8933C644.874 109.954 651.014 116.54 663.293 116.54C665.302 116.54 667.423 116.205 669.433 115.87C671.554 115.424 673.116 114.865 674.009 114.419L674.121 114.307V102.363L673.563 102.81C672.67 103.368 671.888 103.814 670.549 104.149C669.433 104.484 668.428 104.596 667.647 104.596C664.744 104.596 662.735 103.926 661.284 102.251C659.944 100.689 659.274 98.1212 659.274 94.3259V65.0794H674.121Z" fill="white"/>
<path d="M0 0H68.4279V68.4279H0V0Z" fill="white"/>
<path d="M75.5723 0H144V68.4279H75.5723V0Z" fill="white"/>
<path d="M0 75.5723H68.4279V144H0V75.5723Z" fill="white"/>
<path d="M75.5723 75.5723H144V144H75.5723V75.5723Z" fill="white"/>
</svg>
